<svg xmlns="http://www.w3.org/2000/svg" width="3840" height="2160" viewBox="0 0 3840 2160" version="1.1"><path d="M 374 100.654 C 315.901 106.253, 266.568 124.607, 222.500 157.018 C 157.469 204.846, 115.672 273.527, 102.871 353.593 C 100.777 366.688, 100.624 371.253, 100.258 431.750 L 99.869 496 1923 496 L 3746.131 496 3745.742 431.750 C 3745.376 371.253, 3745.223 366.688, 3743.129 353.593 C 3734.773 301.331, 3713.643 252.995, 3681.232 212 C 3671.192 199.301, 3645.003 173.436, 3632 163.378 C 3589.979 130.872, 3546.339 111.963, 3492 102.717 L 3479.500 100.590 1928.500 100.453 C 1075.450 100.378, 375.925 100.468, 374 100.654 M 100.253 1274.250 L 100.524 1822.500 102.752 1836 C 111.648 1889.884, 132.135 1936.805, 164.754 1978 C 181.227 1998.804, 209.279 2024.515, 232.446 2040.040 C 272.211 2066.691, 321.166 2084.253, 368.856 2088.975 C 375.732 2089.655, 508.713 2090, 764.606 2090 L 1150 2090 1150 1408 L 1150 726 624.991 726 L 99.982 726 100.253 1274.250 M 1468 1408 L 1468 2090 2467.394 2090 C 3142.758 2090, 3470.146 2089.668, 3477.144 2088.975 C 3524.836 2084.252, 3573.821 2066.679, 3613.554 2040.038 C 3642.004 2020.962, 3670.930 1992.979, 3690.604 1965.500 C 3720.847 1923.258, 3739.775 1872.656, 3744.975 1820.144 C 3745.661 1813.211, 3746 1630.704, 3746 1267.894 L 3746 726 2607 726 L 1468 726 1468 1408" stroke="none" fill="#d13082" fill-rule="evenodd"/></svg>